<svg xmlns="http://www.w3.org/2000/svg" xmlns:xlink="http://www.w3.org/1999/xlink" width="500" zoomAndPan="magnify" viewBox="0 0 375 374.999991" height="500" preserveAspectRatio="xMidYMid meet" version="1.0"><defs><g/><clipPath id="90318a32ef"><path d="M 37.5 143.042969 L 133.5 143.042969 L 133.5 232.292969 L 37.5 232.292969 Z M 37.5 143.042969 " clip-rule="nonzero"/></clipPath></defs><rect x="-37.5" width="450" fill="#ffffff" y="-37.499999" height="449.999989" fill-opacity="1"/><rect x="-37.5" width="450" fill="#ffffff" y="-37.499999" height="449.999989" fill-opacity="1"/><g fill="#23bdff" fill-opacity="1"><g transform="translate(147.559309, 182.538444)"><g><path d="M 1.171875 -20.296875 L 10.5 -20.296875 C 10.769531 -20.296875 10.90625 -20.160156 10.90625 -19.890625 L 10.90625 -17.359375 C 10.90625 -17.085938 10.769531 -16.953125 10.5 -16.953125 L 7.5625 -16.953125 L 7.5625 -0.40625 C 7.5625 -0.132812 7.425781 0 7.15625 0 L 4.515625 0 C 4.242188 0 4.109375 -0.132812 4.109375 -0.40625 L 4.109375 -16.953125 L 1.171875 -16.953125 C 0.898438 -16.953125 0.765625 -17.085938 0.765625 -17.359375 L 0.765625 -19.890625 C 0.765625 -20.160156 0.898438 -20.296875 1.171875 -20.296875 Z M 1.171875 -20.296875 "/></g></g></g><g fill="#23bdff" fill-opacity="1"><g transform="translate(162.529925, 182.538444)"><g><path d="M 11.703125 -16.640625 L 11.703125 -10.453125 C 11.703125 -8.765625 11.082031 -7.648438 9.84375 -7.109375 L 11.59375 -0.453125 C 11.675781 -0.148438 11.554688 0 11.234375 0 L 8.609375 0 C 8.367188 0 8.222656 -0.117188 8.171875 -0.359375 L 6.46875 -6.796875 L 4.71875 -6.796875 L 4.71875 -0.40625 C 4.71875 -0.132812 4.582031 0 4.3125 0 L 1.671875 0 C 1.398438 0 1.265625 -0.132812 1.265625 -0.40625 L 1.265625 -19.890625 C 1.265625 -20.160156 1.398438 -20.296875 1.671875 -20.296875 L 8.046875 -20.296875 C 9.242188 -20.296875 10.148438 -19.988281 10.765625 -19.375 C 11.390625 -18.757812 11.703125 -17.847656 11.703125 -16.640625 Z M 4.71875 -10.15625 L 7.234375 -10.15625 C 7.910156 -10.15625 8.25 -10.492188 8.25 -11.171875 L 8.25 -15.9375 C 8.25 -16.613281 7.910156 -16.953125 7.234375 -16.953125 L 4.71875 -16.953125 Z M 4.71875 -10.15625 "/></g></g></g><g fill="#23bdff" fill-opacity="1"><g transform="translate(178.794468, 182.538444)"><g><path d="M 13.5 0 L 10.8125 0 C 10.59375 0 10.457031 -0.117188 10.40625 -0.359375 L 9.6875 -4.0625 L 5.171875 -4.0625 L 4.484375 -0.359375 C 4.441406 -0.117188 4.304688 0 4.078125 0 L 1.375 0 C 1.0625 0 0.953125 -0.144531 1.046875 -0.4375 L 5.25 -19.9375 C 5.300781 -20.175781 5.445312 -20.296875 5.6875 -20.296875 L 9.21875 -20.296875 C 9.445312 -20.296875 9.585938 -20.175781 9.640625 -19.9375 L 13.859375 -0.4375 C 13.910156 -0.144531 13.789062 0 13.5 0 Z M 9.0625 -7 L 7.4375 -15.859375 L 5.8125 -7 Z M 9.0625 -7 "/></g></g></g><g fill="#23bdff" fill-opacity="1"><g transform="translate(196.961842, 182.538444)"><g><path d="M 10.125 -20.296875 L 12.53125 -20.296875 C 12.925781 -20.296875 13.078125 -20.109375 12.984375 -19.734375 L 8.703125 -0.453125 C 8.640625 -0.148438 8.453125 0 8.140625 0 L 5.609375 0 C 5.316406 0 5.128906 -0.148438 5.046875 -0.453125 L 0.78125 -19.734375 C 0.695312 -20.109375 0.851562 -20.296875 1.25 -20.296875 L 3.65625 -20.296875 C 3.957031 -20.296875 4.144531 -20.144531 4.21875 -19.84375 L 6.875 -6.25 L 9.5625 -19.84375 C 9.644531 -20.144531 9.832031 -20.296875 10.125 -20.296875 Z M 10.125 -20.296875 "/></g></g></g><g fill="#23bdff" fill-opacity="1"><g transform="translate(214.038262, 182.538444)"><g><path d="M 11.390625 -19.890625 L 11.390625 -17.359375 C 11.390625 -17.066406 11.253906 -16.921875 10.984375 -16.921875 L 4.640625 -16.921875 L 4.640625 -11.84375 L 9.484375 -11.84375 C 9.753906 -11.84375 9.890625 -11.703125 9.890625 -11.421875 L 9.890625 -8.90625 C 9.890625 -8.613281 9.753906 -8.46875 9.484375 -8.46875 L 4.640625 -8.46875 L 4.640625 -3.34375 L 10.984375 -3.34375 C 11.253906 -3.34375 11.390625 -3.207031 11.390625 -2.9375 L 11.390625 -0.40625 C 11.390625 -0.132812 11.253906 0 10.984375 0 L 1.65625 0 C 1.394531 0 1.265625 -0.132812 1.265625 -0.40625 L 1.265625 -19.890625 C 1.265625 -20.160156 1.394531 -20.296875 1.65625 -20.296875 L 10.984375 -20.296875 C 11.253906 -20.296875 11.390625 -20.160156 11.390625 -19.890625 Z M 11.390625 -19.890625 "/></g></g></g><g fill="#23bdff" fill-opacity="1"><g transform="translate(229.998357, 182.538444)"><g><path d="M 4.71875 -3.34375 L 4.71875 -19.890625 C 4.71875 -20.160156 4.582031 -20.296875 4.3125 -20.296875 L 1.671875 -20.296875 C 1.398438 -20.296875 1.265625 -20.160156 1.265625 -19.890625 L 1.265625 -0.40625 C 1.265625 -0.132812 1.398438 0 1.671875 0 L 10.765625 0 C 11.035156 0 11.171875 -0.132812 11.171875 -0.40625 L 11.171875 -2.9375 C 11.171875 -3.207031 11.035156 -3.34375 10.765625 -3.34375 Z M 4.71875 -3.34375 "/></g></g></g><g fill="#23bdff" fill-opacity="1"><g transform="translate(245.730108, 182.538444)"><g><path d="M 10.125 -20.296875 L 12.53125 -20.296875 C 12.925781 -20.296875 13.078125 -20.109375 12.984375 -19.734375 L 8.703125 -0.453125 C 8.640625 -0.148438 8.453125 0 8.140625 0 L 5.609375 0 C 5.316406 0 5.128906 -0.148438 5.046875 -0.453125 L 0.78125 -19.734375 C 0.695312 -20.109375 0.851562 -20.296875 1.25 -20.296875 L 3.65625 -20.296875 C 3.957031 -20.296875 4.144531 -20.144531 4.21875 -19.84375 L 6.875 -6.25 L 9.5625 -19.84375 C 9.644531 -20.144531 9.832031 -20.296875 10.125 -20.296875 Z M 10.125 -20.296875 "/></g></g></g><g fill="#23bdff" fill-opacity="1"><g transform="translate(262.806523, 182.538444)"><g><path d="M 11.390625 -19.890625 L 11.390625 -17.359375 C 11.390625 -17.066406 11.253906 -16.921875 10.984375 -16.921875 L 4.640625 -16.921875 L 4.640625 -11.84375 L 9.484375 -11.84375 C 9.753906 -11.84375 9.890625 -11.703125 9.890625 -11.421875 L 9.890625 -8.90625 C 9.890625 -8.613281 9.753906 -8.46875 9.484375 -8.46875 L 4.640625 -8.46875 L 4.640625 -3.34375 L 10.984375 -3.34375 C 11.253906 -3.34375 11.390625 -3.207031 11.390625 -2.9375 L 11.390625 -0.40625 C 11.390625 -0.132812 11.253906 0 10.984375 0 L 1.65625 0 C 1.394531 0 1.265625 -0.132812 1.265625 -0.40625 L 1.265625 -19.890625 C 1.265625 -20.160156 1.394531 -20.296875 1.65625 -20.296875 L 10.984375 -20.296875 C 11.253906 -20.296875 11.390625 -20.160156 11.390625 -19.890625 Z M 11.390625 -19.890625 "/></g></g></g><g fill="#23bdff" fill-opacity="1"><g transform="translate(278.766613, 182.538444)"><g><path d="M 11.703125 -16.640625 L 11.703125 -10.453125 C 11.703125 -8.765625 11.082031 -7.648438 9.84375 -7.109375 L 11.59375 -0.453125 C 11.675781 -0.148438 11.554688 0 11.234375 0 L 8.609375 0 C 8.367188 0 8.222656 -0.117188 8.171875 -0.359375 L 6.46875 -6.796875 L 4.71875 -6.796875 L 4.71875 -0.40625 C 4.71875 -0.132812 4.582031 0 4.3125 0 L 1.671875 0 C 1.398438 0 1.265625 -0.132812 1.265625 -0.40625 L 1.265625 -19.890625 C 1.265625 -20.160156 1.398438 -20.296875 1.671875 -20.296875 L 8.046875 -20.296875 C 9.242188 -20.296875 10.148438 -19.988281 10.765625 -19.375 C 11.390625 -18.757812 11.703125 -17.847656 11.703125 -16.640625 Z M 4.71875 -10.15625 L 7.234375 -10.15625 C 7.910156 -10.15625 8.25 -10.492188 8.25 -11.171875 L 8.25 -15.9375 C 8.25 -16.613281 7.910156 -16.953125 7.234375 -16.953125 L 4.71875 -16.953125 Z M 4.71875 -10.15625 "/></g></g></g><g fill="#23bdff" fill-opacity="1"><g transform="translate(295.031162, 182.538444)"><g><path d="M 4.921875 -20.296875 L 7.765625 -20.296875 C 8.960938 -20.296875 9.867188 -19.988281 10.484375 -19.375 C 11.109375 -18.757812 11.421875 -17.847656 11.421875 -16.640625 L 11.421875 -13.953125 C 11.421875 -13.679688 11.285156 -13.546875 11.015625 -13.546875 L 8.375 -13.546875 C 8.101562 -13.546875 7.96875 -13.679688 7.96875 -13.953125 L 7.96875 -15.9375 C 7.96875 -16.613281 7.628906 -16.953125 6.953125 -16.953125 L 5.734375 -16.953125 C 5.054688 -16.953125 4.71875 -16.613281 4.71875 -15.9375 L 4.71875 -12.4375 L 10.765625 -10.453125 C 11.203125 -10.265625 11.421875 -9.953125 11.421875 -9.515625 L 11.421875 -3.65625 C 11.421875 -2.46875 11.109375 -1.5625 10.484375 -0.9375 C 9.867188 -0.3125 8.960938 0 7.765625 0 L 4.921875 0 C 3.734375 0 2.828125 -0.3125 2.203125 -0.9375 C 1.578125 -1.5625 1.265625 -2.46875 1.265625 -3.65625 L 1.265625 -6.3125 C 1.265625 -6.582031 1.398438 -6.71875 1.671875 -6.71875 L 4.3125 -6.71875 C 4.582031 -6.71875 4.71875 -6.582031 4.71875 -6.3125 L 4.71875 -4.359375 C 4.71875 -3.679688 5.054688 -3.34375 5.734375 -3.34375 L 6.953125 -3.34375 C 7.628906 -3.34375 7.96875 -3.679688 7.96875 -4.359375 L 7.96875 -7.734375 L 1.953125 -9.71875 C 1.492188 -9.875 1.265625 -10.1875 1.265625 -10.65625 L 1.265625 -16.640625 C 1.265625 -17.847656 1.578125 -18.757812 2.203125 -19.375 C 2.828125 -19.988281 3.734375 -20.296875 4.921875 -20.296875 Z M 4.921875 -20.296875 "/></g></g></g><g fill="#23bdff" fill-opacity="1"><g transform="translate(311.016634, 182.538444)"><g><path d="M 11.390625 -19.890625 L 11.390625 -17.359375 C 11.390625 -17.066406 11.253906 -16.921875 10.984375 -16.921875 L 4.640625 -16.921875 L 4.640625 -11.84375 L 9.484375 -11.84375 C 9.753906 -11.84375 9.890625 -11.703125 9.890625 -11.421875 L 9.890625 -8.90625 C 9.890625 -8.613281 9.753906 -8.46875 9.484375 -8.46875 L 4.640625 -8.46875 L 4.640625 -3.34375 L 10.984375 -3.34375 C 11.253906 -3.34375 11.390625 -3.207031 11.390625 -2.9375 L 11.390625 -0.40625 C 11.390625 -0.132812 11.253906 0 10.984375 0 L 1.65625 0 C 1.394531 0 1.265625 -0.132812 1.265625 -0.40625 L 1.265625 -19.890625 C 1.265625 -20.160156 1.394531 -20.296875 1.65625 -20.296875 L 10.984375 -20.296875 C 11.253906 -20.296875 11.390625 -20.160156 11.390625 -19.890625 Z M 11.390625 -19.890625 "/></g></g></g><g fill="#23bdff" fill-opacity="1"><g transform="translate(148.965662, 199.049987)"><g><path d="M 1.296875 0 L 1.296875 -8.5625 L 4.546875 -8.5625 C 5.066406 -8.5625 5.507812 -8.476562 5.875 -8.3125 C 6.25 -8.144531 6.523438 -7.90625 6.703125 -7.59375 C 6.890625 -7.28125 6.984375 -6.910156 6.984375 -6.484375 C 6.984375 -6.117188 6.882812 -5.785156 6.6875 -5.484375 C 6.488281 -5.179688 6.203125 -4.945312 5.828125 -4.78125 L 5.828125 -4.65625 C 6.398438 -4.507812 6.832031 -4.25 7.125 -3.875 C 7.414062 -3.507812 7.5625 -3.046875 7.5625 -2.484375 C 7.5625 -1.691406 7.328125 -1.078125 6.859375 -0.640625 C 6.398438 -0.210938 5.707031 0 4.78125 0 Z M 4.5 -4.96875 C 4.96875 -4.96875 5.332031 -5.09375 5.59375 -5.34375 C 5.851562 -5.59375 5.984375 -5.929688 5.984375 -6.359375 C 5.984375 -6.816406 5.859375 -7.160156 5.609375 -7.390625 C 5.359375 -7.617188 4.988281 -7.734375 4.5 -7.734375 L 2.296875 -7.734375 L 2.296875 -4.96875 Z M 4.71875 -0.828125 C 5.9375 -0.828125 6.546875 -1.378906 6.546875 -2.484375 C 6.546875 -3.585938 5.9375 -4.140625 4.71875 -4.140625 L 2.296875 -4.140625 L 2.296875 -0.828125 Z M 4.71875 -0.828125 "/></g></g></g><g fill="#23bdff" fill-opacity="1"><g transform="translate(159.369802, 199.049987)"><g><path d="M 7.71875 0 L 6.640625 0 L 5.84375 -2.34375 L 2.1875 -2.34375 L 1.390625 0 L 0.34375 0 L 3.328125 -8.5625 L 4.71875 -8.5625 Z M 3.9375 -7.53125 L 2.46875 -3.1875 L 5.5625 -3.1875 L 4.09375 -7.53125 Z M 3.9375 -7.53125 "/></g></g></g><g fill="#23bdff" fill-opacity="1"><g transform="translate(169.580582, 199.049987)"><g><path d="M 2.28125 0 L 1.296875 0 L 1.296875 -8.5625 L 2.53125 -8.5625 L 6.703125 -2.015625 L 6.859375 -2.046875 L 6.859375 -8.5625 L 7.828125 -8.5625 L 7.828125 0 L 6.78125 0 L 2.421875 -7 L 2.28125 -6.984375 Z M 2.28125 0 "/></g></g></g><g fill="#23bdff" fill-opacity="1"><g transform="translate(180.875347, 199.049987)"><g><path d="M 4.1875 0 L 3.1875 0 L 3.1875 -3.359375 L 0.21875 -8.5625 L 1.328125 -8.5625 L 3.640625 -4.546875 L 3.78125 -4.546875 L 6.078125 -8.5625 L 7.15625 -8.5625 L 4.1875 -3.359375 Z M 4.1875 0 "/></g></g></g><g fill="#23bdff" fill-opacity="1"><g transform="translate(190.400581, 199.049987)"><g><path d="M 4.421875 0.125 C 3.367188 0.125 2.570312 -0.140625 2.03125 -0.671875 C 1.488281 -1.210938 1.21875 -2.003906 1.21875 -3.046875 L 1.21875 -8.5625 L 2.234375 -8.5625 L 2.234375 -3.0625 C 2.234375 -2.3125 2.410156 -1.75 2.765625 -1.375 C 3.128906 -1 3.679688 -0.8125 4.421875 -0.8125 C 5.878906 -0.8125 6.609375 -1.5625 6.609375 -3.0625 L 6.609375 -8.5625 L 7.609375 -8.5625 L 7.609375 -3.046875 C 7.609375 -2.003906 7.335938 -1.210938 6.796875 -0.671875 C 6.265625 -0.140625 5.472656 0.125 4.421875 0.125 Z M 4.421875 0.125 "/></g></g></g><g fill="#23bdff" fill-opacity="1"><g transform="translate(201.390659, 199.049987)"><g><path d="M 3.75 0 L 2.421875 0 L 0.46875 -8.5625 L 1.453125 -8.5625 L 3.078125 -1.484375 L 3.21875 -1.484375 L 5.140625 -8.5625 L 6.078125 -8.5625 L 8 -1.484375 L 8.140625 -1.484375 L 9.75 -8.5625 L 10.71875 -8.5625 L 8.765625 0 L 7.4375 0 L 5.65625 -6.484375 L 5.53125 -6.484375 Z M 3.75 0 "/></g></g></g><g fill="#23bdff" fill-opacity="1"><g transform="translate(214.736203, 199.049987)"><g><path d="M 7.71875 0 L 6.640625 0 L 5.84375 -2.34375 L 2.1875 -2.34375 L 1.390625 0 L 0.34375 0 L 3.328125 -8.5625 L 4.71875 -8.5625 Z M 3.9375 -7.53125 L 2.46875 -3.1875 L 5.5625 -3.1875 L 4.09375 -7.53125 Z M 3.9375 -7.53125 "/></g></g></g><g fill="#23bdff" fill-opacity="1"><g transform="translate(224.946982, 199.049987)"><g><path d="M 2.28125 0 L 1.296875 0 L 1.296875 -8.5625 L 2.53125 -8.5625 L 6.703125 -2.015625 L 6.859375 -2.046875 L 6.859375 -8.5625 L 7.828125 -8.5625 L 7.828125 0 L 6.78125 0 L 2.421875 -7 L 2.28125 -6.984375 Z M 2.28125 0 "/></g></g></g><g fill="#23bdff" fill-opacity="1"><g transform="translate(236.241745, 199.049987)"><g><path d="M 4.5 0.125 C 3.78125 0.125 3.144531 -0.0351562 2.59375 -0.359375 C 2.050781 -0.691406 1.625 -1.1875 1.3125 -1.84375 C 1.007812 -2.507812 0.859375 -3.320312 0.859375 -4.28125 C 0.859375 -5.238281 1.019531 -6.046875 1.34375 -6.703125 C 1.675781 -7.367188 2.132812 -7.863281 2.71875 -8.1875 C 3.3125 -8.519531 3.988281 -8.6875 4.75 -8.6875 C 5.570312 -8.6875 6.242188 -8.539062 6.765625 -8.25 C 7.296875 -7.957031 7.671875 -7.515625 7.890625 -6.921875 L 7.234375 -6.546875 L 7.09375 -6.546875 C 6.863281 -6.984375 6.5625 -7.296875 6.1875 -7.484375 C 5.8125 -7.679688 5.332031 -7.78125 4.75 -7.78125 C 2.875 -7.78125 1.9375 -6.613281 1.9375 -4.28125 C 1.9375 -3.070312 2.171875 -2.1875 2.640625 -1.625 C 3.117188 -1.0625 3.78125 -0.78125 4.625 -0.78125 C 5.40625 -0.78125 5.988281 -0.957031 6.375 -1.3125 C 6.769531 -1.675781 6.96875 -2.238281 6.96875 -3 L 6.96875 -3.75 L 4.53125 -3.75 L 4.53125 -4.5625 L 7.953125 -4.5625 L 7.953125 0 L 7.015625 0 L 7.015625 -1.15625 L 6.890625 -1.171875 C 6.660156 -0.734375 6.34375 -0.40625 5.9375 -0.1875 C 5.539062 0.0195312 5.0625 0.125 4.5 0.125 Z M 4.5 0.125 "/></g></g></g><g fill="#23bdff" fill-opacity="1"><g transform="translate(247.307998, 199.049987)"><g><path d="M 2.296875 0 L 1.296875 0 L 1.296875 -8.5625 L 2.296875 -8.5625 Z M 2.296875 0 "/></g></g></g><g clip-path="url(#90318a32ef)"><path fill="#00aeef" d="M 92.4375 209.492188 C 96.664062 216.386719 96.71875 225.128906 92.425781 231.984375 C 92.363281 232.085938 92.296875 232.1875 92.234375 232.289062 L 37.527344 143.042969 L 51.707031 143.042969 Z M 131.140625 152.410156 C 129.613281 149.652344 127.402344 147.332031 124.753906 145.699219 C 121.929688 143.960938 118.652344 143.042969 115.285156 143.042969 L 60.0625 143.042969 L 98.082031 205.070312 C 103.15625 213.347656 103.613281 223.664062 99.640625 232.289062 L 112.570312 232.289062 C 113.574219 229.039062 114.175781 225.65625 114.347656 222.199219 C 114.761719 213.894531 112.6875 205.769531 108.351562 198.691406 L 81.683594 155.1875 L 115.285156 155.1875 C 118.511719 155.1875 120.078125 157.386719 120.601562 158.328125 C 121.128906 159.273438 122.164062 161.769531 120.46875 164.535156 L 108.269531 184.441406 L 115.359375 196.007812 L 130.738281 170.910156 C 132.507812 168.023438 133.449219 164.738281 133.460938 161.40625 C 133.472656 158.28125 132.671875 155.167969 131.140625 152.410156 Z M 131.140625 152.410156 " fill-opacity="1" fill-rule="nonzero"/></g></svg>