<svg xmlns="http://www.w3.org/2000/svg" xmlns:xlink="http://www.w3.org/1999/xlink" width="500" zoomAndPan="magnify" viewBox="0 0 375 374.999991" height="500" preserveAspectRatio="xMidYMid meet" version="1.0"><defs><clipPath id="79abd5b8c2"><path d="M 26 43.601562 L 337.203125 43.601562 L 337.203125 331.601562 L 26 331.601562 Z M 26 43.601562 " clip-rule="nonzero"/></clipPath></defs><rect x="-37.5" width="450" fill="#ffffff" y="-37.499999" height="449.999989" fill-opacity="1"/><rect x="-37.5" width="450" fill="#ffffff" y="-37.499999" height="449.999989" fill-opacity="1"/><g clip-path="url(#79abd5b8c2)"><path fill="#00aeef" d="M 204.066406 258.027344 C 217.769531 280.28125 217.941406 308.488281 204.035156 330.613281 C 203.828125 330.941406 203.617188 331.269531 203.40625 331.597656 L 26.046875 43.601562 L 72.015625 43.601562 Z M 329.550781 73.835938 C 324.589844 64.9375 317.425781 57.445312 308.835938 52.175781 C 299.683594 46.566406 289.066406 43.601562 278.140625 43.601562 L 99.105469 43.601562 L 222.367188 243.757812 C 238.824219 270.476562 240.304688 303.761719 227.425781 331.597656 L 269.339844 331.597656 C 272.589844 321.109375 274.542969 310.191406 275.101562 299.03125 C 276.445312 272.242188 269.722656 246.011719 255.667969 223.183594 L 169.207031 82.792969 L 278.140625 82.792969 C 288.605469 82.792969 293.683594 89.886719 295.382812 92.933594 C 297.085938 95.984375 300.4375 104.039062 294.949219 112.960938 L 255.394531 177.195312 L 278.378906 214.515625 L 328.246094 133.53125 C 333.984375 124.214844 337.035156 113.613281 337.074219 102.859375 C 337.113281 92.78125 334.507812 82.734375 329.550781 73.835938 Z M 329.550781 73.835938 " fill-opacity="1" fill-rule="nonzero"/></g></svg>